:SAMPLES-PER-SECOND 30
:FRAME-RANGE 1-1700
:FULLY-SPECIFIED
:DEGREES
638
root  77.6875 36.3167 -1.36481 172.336 -0.942429 172.88
RightUpLeg  -2.56665 -4.34115 -10.6316
RightLeg  46.8068 -1.3248 -1.8399
RightFoot  -33.9428 0.769744 5.00879
RightToes  6.35937e-011 1.2921e-014 -6.02303e-014
Spine  19.3832 1.49103 4.4946
Spine1  -2.00165 0.90819 1.1687
HEad  1.66247 22.9459 -17.0421
LeftShoulder1  2.37248 -9.56926 -11.5071
LeftArm  22.0743 -38.5714 -92.4247
LeftForeArm  85.8139 5.3615 -13.655
LeftHand  -0.428517 12.9321 -5.27754
RightShoulder  3.3785 8.66619 22.078
RightArm  -11.3053 30.9399 69.9572
RightForeArm  94.1954 -4.74215 6.47509
RightHand  0.905356 -10.7831 -19.7223
LeftUpLeg  -93.7967 6.88783 -44.2372
LeftLeg  114.721 -2.80202 4.92646
LeftFoot  -30.294 -0.536945 -4.30847
LeftToes  -1.9349e-011 5.45182e-011 1.33515e-010
639
root  78.0504 37.6076 -2.90519 172.867 0.336472 172.313
RightUpLeg  2.51609 -3.44034 -10.6818
RightLeg  38.853 -0.952165 -1.09935
RightFoot  -28.7177 0.690631 5.79388
RightToes  6.35937e-011 1.2921e-014 -6.02303e-014
Spine  18.4841 2.52787 4.0277
Spine1  -5.06626 1.8987 0.157496
HEad  5.35958 22.7398 -15.6419
LeftShoulder1  2.3177 -8.85681 -12.206
LeftArm  21.5505 -37.7235 -90.7722
LeftForeArm  84.9931 5.28075 -13.8154
LeftHand  -0.449858 12.6982 -5.78908
RightShoulder  3.44484 8.43445 23.2701
RightArm  -12.6215 28.3143 70.2381
RightForeArm  93.5164 -4.72017 6.14542
RightHand  0.912311 -10.587 -20.5632
LeftUpLeg  -97.204 8.31738 -44.8204
LeftLeg  116.197 -3.67421 6.22944
LeftFoot  -30.9451 -0.466069 -3.77614
LeftToes  -1.9349e-011 5.45182e-011 1.33515e-010
640
root  78.3439 39.0187 -4.34156 173.598 2.00566 172.066
RightUpLeg  4.77226 -1.72859 -10.6932
RightLeg  34.5562 0.732707 0.286553
RightFoot  -20.0587 0.470544 7.94947
RightToes  6.35937e-011 1.2921e-014 -6.02303e-014
Spine  17.1064 3.17174 3.8831
Spine1  -6.74262 2.59344 -1.13662
HEad  8.12132 22.9104 -14.0702
LeftShoulder1  2.09614 -8.11648 -11.4263
LeftArm  19.8402 -37.4943 -88.8505
LeftForeArm  80.9353 5.54772 -13.7479
LeftHand  -0.400715 12.3079 -5.35831
RightShoulder  3.66347 8.85306 24.1056
RightArm  -13.8958 27.7687 71.3688
RightForeArm  94.2939 -4.51734 5.12429
RightHand  0.967631 -10.7906 -20.9423
LeftUpLeg  -101.766 9.62429 -45.8228
LeftLeg  116.09 -4.38234 7.56377
LeftFoot  -31.4238 -0.368241 -3.14898
LeftToes  -1.9349e-011 5.45182e-011 1.33515e-010
641
root  78.5311 40.4681 -5.56196 174.1 1.39822 172.559
RightUpLeg  4.47376 -0.974809 -9.82991
RightLeg  34.7566 0.564135 0.162865
RightFoot  -8.35238 -0.319889 10.0542
RightToes  6.35937e-011 1.2921e-014 -6.02303e-014
Spine  16.1704 2.95619 3.12851
Spine1  -7.34235 2.16708 -0.0836548
HEad  9.29976 22.4995 -13.2454
LeftShoulder1  2.02486 -8.16512 -10.6493
LeftArm  19.5337 -37.7568 -87.9436
LeftForeArm  75.1324 5.70408 -13.9547
LeftHand  -0.294773 11.4414 -4.26149
RightShoulder  3.82523 9.24089 24.4844
RightArm  -15.0471 29.6931 72.0913
RightForeArm  97.548 -4.09064 3.46111
RightHand  1.0391 -11.3213 -20.4843
LeftUpLeg  -102.734 9.15763 -45.8361
LeftLeg  113.299 -2.67106 4.9824
LeftFoot  -31.7154 -0.501407 -3.85349
LeftToes  -1.9349e-011 5.45182e-011 1.33515e-010
642
root  78.683 41.5445 -6.62222 173.664 -1.07161 173.297
RightUpLeg  1.6387 -0.721271 -8.23555
RightLeg  40.6216 -1.55977 -1.72248
RightFoot  2.96465 -0.995408 8.08073
RightToes  6.35937e-011 1.2921e-014 -6.02303e-014
Spine  17.2507 2.90707 1.44765
Spine1  -8.09722 1.6297 2.86361
HEad  8.66089 20.7821 -12.2401
LeftShoulder1  2.22285 -9.16443 -10.8398
LeftArm  18.3915 -38.1665 -89.0511
LeftForeArm  74.411 5.85648 -13.8108
LeftHand  -0.240149 11.4299 -3.26667
RightShoulder  3.72491 8.99441 24.2679
RightArm  -15.7004 31.538 70.9229
RightForeArm  99.2359 -3.86364 2.5761
RightHand  1.06 -11.5182 -20.2342
LeftUpLeg  -100.677 7.53838 -46.2195
LeftLeg  109.481 -1.09896 2.03253
LeftFoot  -31.6059 -0.739939 -5.204
LeftToes  -1.9349e-011 5.45182e-011 1.33515e-010
